<?xml version="1.0" encoding="UTF-8"?>
<svg width="1016px" height="1026px" viewBox="0 0 1016 1026" version="1.1" xmlns="http://www.w3.org/2000/svg" xmlns:xlink="http://www.w3.org/1999/xlink">
    <title>Artboard</title>
    <g id="Artboard" stroke="none" stroke-width="1" fill="none" fill-rule="evenodd" stroke-linecap="square" stroke-linejoin="round">
        <path d="M415.980608,844.225321 C491.080664,844.225321 551.96791,905.318707 551.96791,980.673726 C551.96791,1056.03417 491.080664,1117.12213 415.980608,1117.12213 C340.869702,1117.12213 279.993306,1056.03417 279.993306,980.673726 C279.993306,905.318707 340.869702,844.225321 415.980608,844.225321 Z M705.856843,709.496558 C780.9569,709.496558 841.844145,770.584519 841.844145,845.944963 C841.844145,921.299982 780.9569,982.393367 705.856843,982.393367 C630.745938,982.393367 569.858692,921.299982 569.858692,845.944963 C569.858692,770.584519 630.745938,709.496558 705.856843,709.496558 Z M780.929776,248.144392 C856.029832,248.144392 916.927928,309.232353 916.927928,384.592797 C916.927928,459.95324 856.029832,521.041202 780.929776,521.041202 C705.82972,521.041202 644.942474,459.95324 644.942474,384.592797 C644.942474,309.232353 705.82972,248.144392 780.929776,248.144392 Z M353.17843,37.1221306 C428.283911,37.1221306 489.171157,98.2155164 489.171157,173.57596 C489.171157,248.930979 428.283911,310.024365 353.17843,310.024365 C278.067524,310.024365 217.185703,248.930979 217.185703,173.57596 C217.185703,98.2155164 278.067524,37.1221306 353.17843,37.1221306 Z M467.569855,453.47068 C542.669911,453.47068 603.557157,514.558641 603.557157,589.919085 C603.557157,665.274104 542.669911,726.367489 467.569855,726.367489 C392.464374,726.367489 331.571703,665.274104 331.571703,589.919085 C331.571703,514.558641 392.464374,453.47068 467.569855,453.47068 Z M358.076967,329.558842 C394.563747,329.558842 424.144837,359.237577 424.144837,395.849126 C424.144837,432.449825 394.563747,462.12856 358.076967,462.12856 C321.590187,462.12856 292.009098,432.449825 292.009098,395.849126 C292.009098,359.237577 321.590187,329.558842 358.076967,329.558842 Z M555.396343,316.582872 C591.883123,316.582872 621.464213,346.261607 621.464213,382.873155 C621.464213,419.484704 591.883123,449.163439 555.396343,449.163439 C518.909564,449.163439 489.328474,419.484704 489.328474,382.873155 C489.328474,346.261607 518.909564,316.582872 555.396343,316.582872 Z M800.936205,563.180557 C837.422985,563.180557 867.004075,592.859292 867.004075,629.470841 C867.004075,666.082389 837.422985,695.761124 800.936205,695.761124 C764.449426,695.761124 734.868336,666.082389 734.868336,629.470841 C734.868336,592.859292 764.449426,563.180557 800.936205,563.180557 Z M331.577128,711.655603 C368.069332,711.655603 397.639573,741.334338 397.639573,777.935037 C397.639573,814.546586 368.069332,844.225321 331.577128,844.225321 C295.090348,844.225321 265.509258,814.546586 265.509258,777.935037 C265.509258,741.334338 295.090348,711.655603 331.577128,711.655603 Z M500.601077,762.192451 C518.844467,762.192451 533.637724,777.023682 533.637724,795.332168 C533.637724,813.63523 518.844467,828.471885 500.601077,828.471885 C482.357687,828.471885 467.569855,813.63523 467.569855,795.332168 C467.569855,777.023682 482.357687,762.192451 500.601077,762.192451 Z M621.453363,996.13965 C639.696753,996.13965 654.490011,1010.97088 654.490011,1029.27937 C654.490011,1047.58243 639.696753,1062.41908 621.453363,1062.41908 C603.209974,1062.41908 588.432991,1047.58243 588.432991,1029.27937 C588.432991,1010.97088 603.209974,996.13965 621.453363,996.13965 Z M644.942474,638.052774 C663.185864,638.052774 677.973696,652.894854 677.973696,671.197916 C677.973696,689.506403 663.185864,704.337633 644.942474,704.337633 C626.699084,704.337633 611.905827,689.506403 611.905827,671.197916 C611.905827,652.894854 626.699084,638.052774 644.942474,638.052774 Z M666.961481,521.920009 C685.20487,521.920009 699.992703,536.751239 699.992703,555.059726 C699.992703,573.362788 685.20487,588.199443 666.961481,588.199443 C648.712666,588.199443 633.924833,573.362788 633.924833,555.059726 C633.924833,536.751239 648.712666,521.920009 666.961481,521.920009 Z M555.396343,382.873155 L780.929776,384.592797 L666.961481,555.059726 L800.936205,629.470841 L644.942474,671.197916 L705.856843,845.944963 L415.980608,980.673726 L500.601077,795.332168 L331.577128,777.935037 L467.569855,589.919085 L358.076967,395.838276 L555.396343,382.873155 L353.17843,173.57596 L358.076967,395.838276 L555.396343,382.873155 Z M467.569855,589.919085 L644.942474,671.197916 L500.601077,795.332168 L467.569855,589.919085 Z M500.601077,795.332168 L705.856843,845.944963 L500.601077,795.332168 Z M644.942474,671.197916 L666.961481,555.059726 L467.569855,589.919085 L555.396343,382.873155 L666.961481,555.059726 L644.942474,671.197916 Z M800.936205,629.470841 L705.856843,845.944963 L621.453363,1029.27937 L415.980608,980.673726 L331.577128,777.935037 L800.936205,629.470841 Z M780.929776,384.592797 L800.936205,629.470841 L780.929776,384.592797 Z" id="Stroke-1" stroke="#FFFFFF" stroke-width="1.5" style="mix-blend-mode: overlay;" transform="translate(567.0568, 577.1221) rotate(50) translate(-567.0568, -577.1221)"></path>
    </g>
</svg>