<?xml version="1.0" encoding="UTF-8"?>
<svg width="890px" height="891px" viewBox="0 0 890 891" version="1.1" xmlns="http://www.w3.org/2000/svg" xmlns:xlink="http://www.w3.org/1999/xlink">
    <title>Group 15</title>
    <g id="Page-1" stroke="none" stroke-width="1" fill="none" fill-rule="evenodd">
        <g id="RWA---Homepage---R1" transform="translate(-793.000000, -220.000000)" stroke="#FFFFFF" stroke-width="3">
            <g id="Group-15" style="mix-blend-mode: overlay;" transform="translate(795.000000, 222.000000)">
                <path d="M886,444 C886,688.662403 687.662403,887 443,887 C198.337597,887 0,688.662403 0,444 C0,199.337597 198.337597,1 443,1 C687.662403,1 886,199.337597 886,444 Z" id="Stroke-1"></path>
                <path d="M694,634.5 C694,773.399761 581.399761,886 442.5,886 C303.600239,886 191,773.399761 191,634.5 C191,495.600239 303.600239,383 442.5,383 C581.399761,383 694,495.600239 694,634.5 Z" id="Stroke-3"></path>
                <path d="M664,222.5 C664,344.831201 564.831201,444 442.5,444 C320.168799,444 221,344.831201 221,222.5 C221,100.168799 320.168799,1 442.5,1 C564.831201,1 664,100.168799 664,222.5 Z" id="Stroke-5"></path>
                <path d="M775,332.5 C775,516.134613 626.134613,665 442.5,665 C258.865387,665 110,516.134613 110,332.5 C110,148.865387 258.865387,0 442.5,0 C626.134613,0 775,148.865387 775,332.5 Z" id="Stroke-9"></path>
                <path d="M553,775.5 C553,836.527235 503.527235,886 442.5,886 C381.472765,886 332,836.527235 332,775.5 C332,714.472765 381.472765,665 442.5,665 C503.527235,665 553,714.472765 553,775.5 Z" id="Stroke-13"></path>
            </g>
        </g>
    </g>
</svg>