<?xml version="1.0" encoding="UTF-8"?>
<svg width="85px" height="99px" viewBox="0 0 85 99" version="1.1" xmlns="http://www.w3.org/2000/svg" xmlns:xlink="http://www.w3.org/1999/xlink">
    <title>Group 19</title>
    <g id="Page-1" stroke="none" stroke-width="1" fill="none" fill-rule="evenodd" stroke-linecap="round" stroke-linejoin="round">
        <g id="RWA---Homepage---R1" transform="translate(-1195.000000, -379.000000)" stroke="#FFFFFF" stroke-width="3">
            <g id="Group-19" transform="translate(1197.000000, 381.000000)">
                <path d="M73.844325,15.08085 L50.0164875,2.371275 C47.1794625,0.8575875 43.9401375,0 40.5,0 C37.0598625,0 33.8205375,0.8575875 30.983175,2.3709375 L7.1553375,15.0805125 C2.897775,17.3518875 0,21.8376 0,27 C0,32.1624 2.897775,36.6481125 7.155675,38.91915 L30.9835125,51.628725 C33.8205375,53.1424125 37.0598625,54 40.5,54 C43.9401375,54 47.1798,53.142075 50.016825,51.6290625 L73.8446625,38.9194875 C78.102225,36.6481125 81,32.1624 81,27 C81,21.8376 78.102225,17.3518875 73.844325,15.08085 Z" id="Stroke-1"></path>
                <path d="M0,27 L0,67.8 C0,73.00064 2.897775,77.51958 7.155675,79.80744 L30.9835125,92.61116 C33.8205375,94.13606 37.0598625,95 40.5,95 C43.9401375,95 47.1798,94.13572 50.016825,92.6115 L73.8446625,79.80778 C78.102225,77.51958 81,73.00064 81,67.8 L81,27" id="Stroke-3"></path>
                <line x1="40" y1="54" x2="40" y2="95" id="Stroke-13"></line>
            </g>
        </g>
    </g>
</svg>