<?xml version="1.0" encoding="UTF-8"?>
<svg width="163px" height="163px" viewBox="0 0 163 163" version="1.1" xmlns="http://www.w3.org/2000/svg" xmlns:xlink="http://www.w3.org/1999/xlink">
    <title>Group 20</title>
    <g id="Page-1" stroke="none" stroke-width="1" fill="none" fill-rule="evenodd" stroke-linecap="round" stroke-linejoin="round">
        <g id="RWA---Homepage---R1" transform="translate(-1156.000000, -347.000000)" stroke="#FFFFFF" stroke-width="3">
            <g id="Group-20" transform="translate(1158.000000, 349.000000)">
                <path d="M5,107 C1.76567093,98.2710344 0,88.839851 0,79 C0,69.160149 1.76567093,59.7289656 5,51" id="Stroke-5"></path>
                <path d="M52,5 C60.7289656,1.76567093 70.160149,0 80,0 C89.839851,0 99.2710344,1.76567093 108,5" id="Stroke-7"></path>
                <path d="M154,51 C157.234329,59.7289656 159,69.160149 159,79 C159,88.839851 157.234329,98.2710344 154,107" id="Stroke-9"></path>
                <path d="M108,154 C99.2710344,157.234329 89.839851,159 80,159 C70.160149,159 60.7289656,157.234329 52,154" id="Stroke-11"></path>
                <path d="M13.5,0 C20.9557125,0 27,6.0442875 27,13.5 C27,20.9557125 20.9557125,27 13.5,27 C6.0442875,27 0,20.9557125 0,13.5 C0,6.0442875 6.0442875,0 13.5,0 Z" id="Stroke-15"></path>
                <path d="M13.5,132 C20.9557125,132 27,138.044287 27,145.5 C27,152.955713 20.9557125,159 13.5,159 C6.0442875,159 0,152.955713 0,145.5 C0,138.044287 6.0442875,132 13.5,132 Z" id="Stroke-17"></path>
                <path d="M145.5,132 C152.955713,132 159,138.044287 159,145.5 C159,152.955713 152.955713,159 145.5,159 C138.044287,159 132,152.955713 132,145.5 C132,138.044287 138.044287,132 145.5,132 Z" id="Stroke-19"></path>
                <path d="M145.5,0 C152.955713,0 159,6.0442875 159,13.5 C159,20.9557125 152.955713,27 145.5,27 C138.044287,27 132,20.9557125 132,13.5 C132,6.0442875 138.044287,0 145.5,0 Z" id="Stroke-21"></path>
            </g>
        </g>
    </g>
</svg>